<svg width="83" height="48" viewBox="0 0 83 48" fill="none" xmlns="http://www.w3.org/2000/svg">
<g clip-path="url(#clip0_908_2612)">
<path d="M0.879459 8.62885C0.368996 7.78624 0.340637 6.85646 1.02125 5.95573C2.26905 4.35767 3.74372 3.07922 5.70049 2.55621C7.45875 2.09132 9.18865 1.59738 10.9469 1.1906C11.8544 0.987207 12.7335 0.783817 13.641 0.638539C14.35 0.522316 15.059 0.28987 15.7963 0.28987C16.165 0.28987 16.5053 0.28987 16.8739 0.28987C20.192 0.260815 23.51 0.115536 26.7996 0.406093C28.0758 0.522316 29.3519 0.667594 30.5997 0.958151C31.3654 1.13249 32.1311 1.30682 32.8968 1.39399C33.6625 1.4521 34.4565 1.39399 35.1939 1.68454C36.1864 2.03321 37.1223 2.67244 38.0865 3.10827C39.0791 3.57316 39.9866 4.03805 40.4403 5.14217C40.809 6.07195 41.0075 7.26324 40.809 8.51263C40.4403 10.808 38.8238 11.2148 37.1223 11.854C34.5983 12.8129 31.9893 12.8419 29.3519 12.9291C26.8847 13.0163 24.4174 13.5102 21.9502 13.6555C20.8159 13.7136 19.7382 13.5393 18.6322 13.4812C16.4769 13.3649 14.2933 13.423 12.138 13.2197C9.67076 13.0163 7.20352 13.0453 4.82136 12.1446C3.0631 11.4763 1.87202 10.1979 0.907818 8.65791L0.879459 8.62885ZM41.7448 29.4618C41.8299 28.7935 41.6881 28.1252 41.5179 27.486C41.4329 27.1664 41.3194 26.8177 41.1209 26.5272C40.6388 25.8589 39.9298 25.946 39.2209 26.0332C38.6537 26.0913 38.0581 26.0913 37.4626 26.0913C36.5268 26.0623 35.6193 25.917 34.6834 25.8589C33.3789 25.8008 32.1595 26.1204 30.9684 26.5272C30.543 26.6724 30.0893 26.7306 29.6639 26.9339C28.8698 27.3117 28.0474 27.6313 27.3101 28.1543C26.7996 28.5029 26.2608 28.7935 25.7503 29.1712C25.1548 29.6071 24.616 30.101 23.9921 30.4787C23.4249 30.7983 22.9144 31.2342 22.4607 31.67C22.2338 31.9025 22.092 32.193 21.7517 32.2511C21.5815 31.67 22.092 31.2342 22.092 30.7112C22.092 30.101 22.404 29.549 22.6308 28.9969C23.1413 27.8637 23.6518 26.7306 24.304 25.6845C24.7578 24.9582 25.0413 24.1446 25.6369 23.5344C26.3742 22.779 27.1399 22.1688 28.2743 22.285C29.0683 22.3722 29.834 22.5465 30.6281 22.6918C32.0177 22.9243 33.4073 23.0695 34.7401 23.5344C36.1581 24.0284 37.6328 24.377 39.1074 24.5223C39.7313 24.5804 40.4687 24.5804 40.8373 24.0574C40.9791 23.825 41.0358 23.5635 41.0642 23.302C41.4896 20.716 41.6314 18.101 41.3478 15.5151C41.3194 15.1664 41.2627 14.8177 41.0075 14.5562C40.8657 14.4109 40.6672 14.3238 40.4687 14.2657C40.0433 14.1204 39.6179 14.0042 39.1641 13.946C37.9731 13.7717 36.7536 13.8298 35.5909 13.946C35.0521 14.0042 34.4849 14.0623 33.9461 14.2657C33.861 14.2947 33.7476 14.2947 33.6625 14.2657C33.152 14.1785 32.6132 14.1204 32.1027 14.2657C31.4505 14.469 30.7699 14.6143 30.1176 14.6434C29.5504 14.6434 29.2101 14.7306 28.8131 15.2536C27.7355 16.7354 26.4877 18.101 25.6085 19.7281C25.2682 20.3674 24.8712 20.9775 24.4742 21.5877C23.7085 22.779 22.8861 23.9703 22.1487 25.1906C21.4681 26.3528 21.0144 27.6603 20.589 28.9388C20.277 29.8686 19.8516 30.7693 19.7382 31.7572C19.7382 31.8734 19.6815 32.0187 19.483 32.0477C19.2277 31.3214 19.1994 30.5659 19.1143 29.7814C19.0292 28.9388 19.483 28.0962 19.1143 27.2245C19.1143 27.1664 19.1143 27.0792 19.1143 27.0211C19.5681 26.2366 19.6248 25.3068 20.192 24.5514C20.8442 23.6506 21.0427 22.5175 21.4681 21.5005C22.2905 19.5538 23.0846 17.6071 24.2757 15.8928C24.4458 15.6603 24.6727 15.4279 24.4742 15.1373C24.2757 14.8177 23.9637 14.963 23.7085 14.9921C23.2831 14.9921 22.8577 15.2536 22.4323 15.1664C21.6666 15.0502 20.8726 15.2245 20.1069 15.1373C19.9084 15.1373 19.6531 15.0792 19.5397 15.1373C19.086 15.486 18.5471 15.5732 18.0367 15.7766C17.8665 15.8347 17.7247 15.9218 17.8098 16.1833C17.8949 16.3867 17.8665 16.6482 17.7814 16.8807C17.4695 17.5199 17.5262 18.2172 17.3277 18.8565C17.1859 19.2923 17.3277 19.6991 17.2993 20.1349C17.1575 21.0356 17.2143 21.9654 17.0441 22.8952C16.9307 23.4182 17.0157 23.9703 16.8739 24.4933C16.6471 25.3068 16.562 26.1494 16.5336 26.9921C16.4486 28.4739 16.5336 29.9557 16.6754 31.5538C16.3918 31.0017 16.1366 30.595 15.9381 30.1301C15.1157 28.1543 14.1798 26.2076 13.4992 24.1737C12.4216 21.0066 10.72 18.2753 8.42296 15.8928C8.28116 15.7475 8.13937 15.6022 7.96922 15.486C7.7707 15.3698 7.54383 15.2826 7.31696 15.1954C6.21096 14.8758 5.04824 14.8468 3.88552 14.8177C3.46013 14.8177 3.00639 14.8177 2.581 14.8177C2.41085 14.8177 2.26905 14.8177 2.0989 14.8468C1.98546 14.8758 1.87202 14.9339 1.75859 14.9921C1.36156 15.1954 0.936177 15.4569 0.709305 15.8637C0.340637 16.5611 0.709305 17.4327 0.8511 18.2463C0.907818 18.6821 0.879459 19.0889 0.8511 19.5247C0.794382 20.3674 0.766023 21.1809 0.709305 22.0235C0.680946 22.6628 0.680946 23.3891 1.13469 23.825C1.67351 24.3189 2.32577 24.1155 2.97803 24.0865C3.8288 24.0865 4.67957 23.9412 5.53034 23.7669C5.75721 23.7378 5.98408 23.6506 6.21096 23.6797C7.48711 23.9412 8.67819 24.348 9.6424 25.3068C10.0961 25.7717 10.6066 26.1785 11.0887 26.6143C11.2589 27.4279 11.826 28.009 12.2231 28.6773C12.6485 29.3746 13.0455 30.072 13.3291 30.8565C12.9888 30.7112 12.6768 30.5659 12.3932 30.4206C11.7126 30.072 11.0603 29.6652 10.4648 29.2003C9.61404 28.532 8.56476 28.2124 7.62891 27.6603C7.1468 27.3988 6.6647 27.0792 6.15424 26.9339C4.67957 26.4981 3.17654 26.7015 1.67351 26.7015C1.41828 26.7015 1.04961 26.7887 1.04961 27.1373C1.02125 27.8347 0.794382 28.4448 0.624227 29.1131C0.340637 30.1882 0.368996 31.3504 0.142124 32.4255C0.0003289 33.1228 -0.0280301 33.8783 0.142124 34.5465C0.425714 35.7378 0.53915 36.9291 0.142124 38.0913C-0.113107 38.8468 0.482432 39.1664 0.822741 39.5441C1.07797 39.8347 1.53172 39.6894 1.87202 39.486C3.03474 38.7596 4.22582 38.0623 5.36019 37.3359C6.72142 36.4642 7.9125 35.3601 9.27373 34.4594C10.0394 33.9364 10.8618 33.5296 11.6559 33.0938C11.741 33.0356 11.8828 33.0356 11.9962 33.0356C12.8186 33.21 13.641 33.3843 14.4067 33.8201C14.6903 33.9654 14.9739 34.1107 15.2575 34.2269C15.3993 34.285 15.5411 34.3141 15.6829 34.3722C15.7679 34.3722 15.9381 34.6046 16.0232 34.5756C15.6829 34.5756 15.3709 34.6046 15.059 34.5175C14.4351 34.3431 13.8679 34.1107 13.2156 34.0526C12.5917 33.9945 11.9395 34.1107 11.3723 34.4303C11.0887 34.6046 10.8051 34.808 10.4932 34.9824C9.58568 35.5054 8.67819 36.0865 7.85578 36.7548C6.86321 37.5683 5.87065 38.44 4.84972 39.1954C3.80044 39.9799 2.69444 40.7063 1.81531 41.6942C1.50336 42.0138 1.475 42.4206 1.475 42.7984C1.475 43.9606 1.56008 45.0938 1.81531 46.2269C1.92874 46.8371 2.12726 47.2148 2.55264 47.2729C3.43177 47.3891 4.3109 47.4473 5.19003 47.5925C6.43783 47.7959 7.68563 47.5344 8.96178 47.5925C9.72748 47.6216 10.5215 47.4763 11.2872 47.3601C11.4857 47.3601 11.7693 47.302 11.826 47.0114C11.9111 46.3141 12.2514 45.733 12.6485 45.1809C13.1306 44.5126 13.3574 43.7281 13.6127 42.9436C13.8963 42.0138 14.4634 41.2293 14.6903 40.2705C14.8037 39.7766 15.0873 39.4569 15.5127 39.2245C16.5904 38.5272 17.8382 38.4109 19.0292 38.0332C19.086 38.3238 18.8874 38.44 18.8024 38.6143C18.6322 38.9921 18.4337 39.3407 18.2919 39.7184C17.9232 40.6773 18.0934 41.6652 17.9232 42.6531C17.6964 44.1349 18.0934 45.5586 18.2068 47.0405C18.2352 47.5344 18.7173 47.9412 19.171 47.9122C19.8233 47.9122 20.4472 47.8831 21.0994 47.9122C21.4681 47.9122 21.6099 47.7378 21.4681 47.4182C21.3263 47.0695 21.298 46.6628 21.3263 46.3141C21.4114 44.7451 21.6383 43.1761 21.5248 41.578C21.4681 40.8516 21.695 40.1543 21.8368 39.4569C21.8935 39.1373 21.7801 38.6143 22.0637 38.5562C22.404 38.4691 22.7726 38.7887 23.0562 39.0502C23.1129 39.0792 23.1413 39.1373 23.198 39.1954C24.1339 40.2124 24.701 41.4908 25.4384 42.6531C26.3742 44.1349 27.3951 45.4715 29.0116 46.256C30.1743 46.8371 31.3654 47.4182 32.6699 47.5054C35.1655 47.6507 37.6044 47.7088 40.0716 47.7088C40.2418 47.7088 40.4119 47.7088 40.5537 47.6507C40.6955 47.5925 40.8373 47.4473 40.9224 47.331C41.4612 46.6046 41.3761 45.6168 41.4612 44.716C41.5463 44.0187 41.7165 43.3504 41.7732 42.6531C41.8583 41.7523 41.7732 40.8516 41.8015 39.9799C41.8015 39.4279 41.8866 38.8758 41.8015 38.3528C41.5179 36.9872 40.1284 36.9872 38.994 37.1615C38.3134 37.2778 37.6044 37.0744 36.9238 37.1034C36.0163 37.1325 35.1372 37.0453 34.2297 37.0744C33.6341 37.0744 33.0102 37.0453 32.3863 37.0453C31.9326 37.0453 31.4505 37.1034 30.9967 37.0163C30.4579 36.9 29.9475 37.0163 29.4086 36.9872C28.6429 36.9291 27.8773 36.9 27.0832 36.8129C25.9488 36.6676 24.8712 36.2608 23.7085 36.1155C23.1697 36.0574 22.6308 35.9122 22.1204 35.6216C22.8577 34.8661 23.3115 34.8952 24.3891 34.9243C26.0906 34.9533 27.7638 35.302 29.437 35.4182C30.6564 35.5054 31.9042 35.6507 33.1237 35.854C33.8326 35.9703 34.5416 35.9122 35.2506 35.9703C35.9312 36.0284 36.5835 36.2027 37.2357 36.2899C37.888 36.377 38.597 36.348 39.1641 36.0574C39.6746 35.7959 40.0716 35.331 40.3836 34.8371C40.5254 34.6337 40.6672 34.4303 40.7239 34.1688C40.8373 33.762 40.7523 33.3553 40.7806 32.9485C40.8373 31.7862 41.6881 30.7693 41.8299 29.6071L41.7448 29.4618ZM51.8406 6.8274C51.8123 6.65307 51.7556 6.47873 51.7272 6.33345C51.5287 5.49084 51.3302 4.64822 51.16 3.77655C50.9615 2.67244 50.763 1.59738 50.6212 0.49326C50.5928 0.28987 50.4794 0.173648 50.2809 0.173648C49.8555 0.173648 49.4585 0.173648 49.0331 0.173648C48.8062 0.173648 48.6928 0.28987 48.6928 0.522316C48.6928 0.69665 48.6928 0.870984 48.6928 1.04532C48.7779 1.74266 48.8913 2.43999 49.0047 3.13733C49.2316 4.41578 49.5435 5.69423 49.8839 6.94362C49.9689 7.23418 49.9973 7.52474 50.1107 7.78624C50.2242 8.04774 50.2525 8.3383 50.2525 8.5998C50.2525 8.80319 50.2525 9.00658 50.2525 9.20997C50.2242 9.96542 50.1958 10.7209 50.1674 11.4763C50.1674 11.9412 50.1674 12.377 50.1674 12.8419C50.1674 13.1906 50.1674 13.5683 50.1674 13.917C50.1674 14.1494 50.2525 14.2366 50.4794 14.2657C50.5361 14.2657 50.5928 14.2657 50.6496 14.2657C50.9615 14.2657 51.2451 14.2657 51.557 14.2657C51.8123 14.2657 52.0675 14.2657 52.2944 14.2947C52.5212 14.2947 52.663 14.1494 52.6914 13.917C52.6914 13.8879 52.6914 13.8589 52.6914 13.8008C52.6914 12.9872 52.6914 12.2027 52.6914 11.3891C52.6914 11.1276 52.663 10.8661 52.663 10.6046C52.663 10.0816 52.6347 9.55864 52.6063 9.03563C52.6063 9.00658 52.6063 8.97752 52.6063 8.91941C52.5496 8.3383 52.578 7.81529 52.7765 7.26324C53.0034 6.65307 53.1735 6.01384 53.3437 5.37462C53.7407 3.95089 54.0526 2.52716 54.3362 1.07437C54.3646 0.870984 54.4213 0.69665 54.4497 0.49326C54.4497 0.202703 54.4213 0.144592 54.1377 0.144592C53.684 0.144592 53.2302 0.115536 52.7765 0.202703C52.5496 0.231759 52.4929 0.28987 52.4929 0.522316C52.4929 0.870984 52.5212 1.24871 52.5496 1.59738C52.5496 2.00416 52.6063 2.41094 52.6347 2.81772C52.6914 3.63127 52.578 4.41578 52.4362 5.22934C52.3227 5.7814 52.2093 6.33345 51.8973 6.8274H51.8406ZM60.4334 10.779C60.4334 10.5756 60.4051 10.4013 60.4051 10.1979C60.4051 9.6458 60.3483 9.09375 60.32 8.54169C60.2916 7.90246 60.2349 7.23418 60.1782 6.59496C60.1782 6.24629 60.1498 5.92667 60.1215 5.57801C60.0648 4.93878 60.0364 4.29956 59.9797 3.68939C59.9797 3.36977 59.923 3.05016 59.8662 2.73055C59.7244 1.82982 59.3274 1.04532 58.6752 0.435149C58.5617 0.347982 58.4483 0.260815 58.3349 0.231759C58.108 0.173647 57.8527 0.115536 57.6259 0.0864804C57.2572 0.028369 56.8602 0.0864804 56.5199 0.231759C55.8393 0.551372 55.4139 1.13249 55.1586 1.82982C55.0452 2.14943 54.9885 2.4981 54.9601 2.84677C54.9034 3.34072 54.875 3.86372 54.8467 4.35767C54.8467 4.47389 54.8467 4.56106 54.8467 4.67728C54.8183 5.11312 54.7616 5.5199 54.7332 5.95573C54.7049 6.27534 54.6765 6.59496 54.6482 6.94362C54.5915 7.49568 54.5631 8.04774 54.5064 8.5998C54.5064 8.94847 54.478 9.32619 54.4497 9.67486C54.3929 10.4303 54.3929 11.1567 54.5064 11.8831C54.6198 12.4352 54.79 12.9582 55.187 13.394C55.3571 13.5974 55.5557 13.7717 55.7258 13.946C55.9527 14.2075 56.2646 14.3238 56.5766 14.3819C56.8318 14.44 57.1154 14.469 57.3706 14.469C57.6259 14.469 57.8811 14.4109 58.108 14.3819C58.4766 14.3528 58.7886 14.2366 59.0722 13.9751C59.1289 13.917 59.214 13.8589 59.2991 13.8008C59.7244 13.394 60.0648 12.9582 60.2349 12.4061C60.4051 11.8831 60.4334 11.331 60.4618 10.808L60.4334 10.779ZM56.3781 9.55864C56.3781 8.51263 56.4348 7.46663 56.4348 6.42062C56.4348 5.51989 56.4348 4.61917 56.4915 3.7475C56.4915 3.19544 56.5766 2.64338 56.7467 2.12038C56.8318 1.88793 56.9453 1.68454 57.0587 1.48115C57.0871 1.42304 57.1438 1.36493 57.2005 1.30682C57.3423 1.16154 57.4557 1.16154 57.5692 1.30682C57.6826 1.4521 57.796 1.62643 57.8811 1.80077C58.0513 2.20755 58.1363 2.64338 58.2214 3.07922C58.3349 3.77655 58.3349 4.50295 58.3349 5.22934C58.3349 6.27534 58.3632 7.32135 58.3916 8.36735C58.3916 9.09375 58.4199 9.79108 58.4199 10.5175C58.4199 10.6628 58.4199 10.8371 58.3632 10.9824C58.2498 11.4473 58.0796 11.9121 57.796 12.3189C57.5408 12.6967 57.2572 12.6967 57.002 12.3189C56.9453 12.2608 56.9169 12.1736 56.8602 12.0865C56.8318 12.0284 56.8035 11.9703 56.7751 11.9121C56.3497 10.8952 56.3781 11.0405 56.4064 10.0816C56.4064 9.9073 56.4064 9.73297 56.4064 9.55864H56.3781ZM63.2126 4.64822V4.18333C63.2126 3.54411 63.2693 2.90488 63.4395 2.29471C63.5529 1.94604 63.6663 1.59738 63.9216 1.33588C64.0634 1.1906 64.1768 1.1906 64.3186 1.33588C64.4604 1.48115 64.5455 1.68454 64.6306 1.88793C64.8291 2.43999 64.9425 3.02111 64.9992 3.60222C64.9992 3.68939 64.9992 3.80561 65.0559 3.89278C65.1127 4.06711 65.2261 4.15428 65.3962 4.15428C65.7082 4.15428 65.9918 4.15428 66.3037 4.15428C66.5873 4.15428 66.7291 3.95089 66.7008 3.66033C66.7008 3.54411 66.6724 3.42789 66.6724 3.31166C66.6724 2.99205 66.6157 2.67244 66.5306 2.35282C66.3605 1.53927 65.9351 0.90004 65.3395 0.347982C65.2544 0.260815 65.141 0.202703 65.0559 0.202703C64.8007 0.144592 64.5738 0.0864804 64.3186 0.0574247C63.9499 -0.000686657 63.5813 0.0574247 63.2693 0.202703C62.532 0.551372 62.0499 1.1906 61.8514 2.00416C61.7379 2.52716 61.6529 3.05016 61.6245 3.57316C61.5961 4.18333 61.5394 4.7935 61.4827 5.43273C61.4827 5.69423 61.4543 5.95573 61.426 6.21723C61.3976 6.5659 61.3693 6.91457 61.3409 7.23418C61.3409 7.52474 61.3125 7.81529 61.2842 8.10585C61.2275 8.74508 61.1707 9.3843 61.1424 9.99447C61.1424 10.6046 61.114 11.2439 61.2275 11.854C61.3125 12.2318 61.3976 12.6385 61.6245 12.9582C61.9081 13.423 62.3335 13.8008 62.7589 14.1494C62.7872 14.1785 62.8439 14.2075 62.9007 14.2366C63.2977 14.3819 63.7231 14.44 64.1485 14.44C64.432 14.44 64.744 14.3819 65.0276 14.3238C65.2828 14.2657 65.538 14.1785 65.7649 14.0042C66.0485 13.7717 66.3037 13.5102 66.5306 13.2197C66.7858 12.871 66.9844 12.4933 67.0694 12.0574C67.1545 11.4763 67.2679 10.8661 67.2112 10.256C67.1545 9.73297 67.1545 9.23902 67.1261 8.71602C67.1261 8.45452 67.0694 8.19302 67.0411 7.96057C67.0127 7.64096 66.956 7.32135 66.9276 7.00174C66.8993 6.65307 66.7575 6.50779 66.4172 6.47873C66.0201 6.47873 65.6231 6.47873 65.2261 6.47873C64.9992 6.47873 64.8291 6.53684 64.8291 6.88551C64.8291 7.20512 64.8291 7.52474 64.8291 7.84435C64.8291 8.3383 64.9141 8.83224 65.0559 9.29714C65.2261 9.82014 65.2544 10.3431 65.1694 10.8952C65.0843 11.331 64.8858 11.7378 64.6873 12.1446C64.6305 12.2608 64.5171 12.4061 64.4037 12.4933C64.2619 12.6385 64.0634 12.6095 63.9216 12.4933C63.8365 12.4061 63.7231 12.2899 63.6663 12.2027C63.3544 11.5925 63.0708 10.9824 63.1275 10.256C63.1842 9.18091 63.1842 8.0768 63.2126 7.00174C63.2126 6.21723 63.241 5.43273 63.2693 4.67728L63.2126 4.64822ZM70.5859 8.57074C70.5859 8.57074 70.6427 8.71602 70.6427 8.77413C70.7277 9.41336 70.7845 10.0816 70.8695 10.7209C70.9263 11.1567 70.9546 11.5925 71.0113 12.0284C71.0397 12.3189 71.0964 12.6385 71.1248 12.9291C71.1531 13.2487 71.1815 13.5683 71.2382 13.8879C71.2949 14.1785 71.38 14.2657 71.6919 14.2947C71.9472 14.2947 72.2024 14.2947 72.4576 14.2947C72.883 14.2947 72.9681 14.2366 72.9681 13.8008C72.9681 13.3068 72.9681 12.8419 72.9397 12.348C72.9397 11.7669 72.9114 11.1858 72.883 10.6046C72.8547 9.9073 72.7979 9.18091 72.7412 8.48358C72.7129 7.93152 72.6562 7.37946 72.6278 6.85646C72.5711 6.27534 72.486 5.69423 72.4293 5.08406C72.3442 4.41578 72.2875 3.71844 72.2308 3.05016C72.174 2.41094 72.1173 1.80077 72.0606 1.16154C72.0606 1.04532 72.0606 0.90004 72.0039 0.783817C71.8905 0.406093 71.5785 0.173648 71.2382 0.173648C70.6427 0.173648 70.0471 0.173648 69.4799 0.173648C69.2247 0.173648 69.1113 0.260815 68.9978 0.435149C68.9411 0.522316 68.9128 0.638539 68.8844 0.725706C68.7993 1.30682 68.7142 1.88793 68.6292 2.43999C68.5725 2.81772 68.5441 3.16638 68.5157 3.54411C68.459 3.97994 68.4307 4.41578 68.3739 4.82256C68.3172 5.46178 68.2605 6.10101 68.2321 6.71118C68.1754 7.40851 68.1187 8.10585 68.0903 8.80319C68.062 9.41336 68.0053 9.99447 67.9769 10.6046C67.9486 11.2148 67.9202 11.825 67.8918 12.4352C67.8918 12.5223 67.8918 12.6095 67.8918 12.6967C67.8918 13.1325 67.8918 13.5683 67.8918 14.0042C67.8918 14.1785 67.9486 14.2366 68.1187 14.2366C68.3456 14.2366 68.5441 14.2366 68.771 14.2366C68.9978 14.2366 69.1964 14.2366 69.4232 14.2075C69.6501 14.1785 69.6501 14.1494 69.6501 13.917C69.6501 13.4521 69.6217 12.9872 69.5934 12.5223C69.5367 11.6506 69.5083 10.779 69.4516 9.93636C69.4516 9.70391 69.4516 9.50053 69.4232 9.26808C69.4232 9.09375 69.4232 8.91941 69.4232 8.74508C69.4232 8.65791 69.4516 8.57074 69.4799 8.51263C69.9053 8.45452 70.274 8.39641 70.6994 8.51263L70.5859 8.57074ZM69.8486 2.4981C69.9337 3.10827 70.0188 3.63128 70.0755 4.15428C70.1322 4.56106 70.1889 4.99689 70.2456 5.40367C70.3024 5.86856 70.3591 6.33345 70.4158 6.79835C70.4158 7.03079 70.3591 7.11796 70.1322 7.14701C69.9621 7.14701 69.8203 7.17607 69.6501 7.17607C69.4232 7.17607 69.3382 7.0889 69.3382 6.85646C69.3382 6.39157 69.3381 5.92667 69.3949 5.49084C69.4516 4.96784 69.5083 4.44483 69.5934 3.95089C69.6501 3.54411 69.7068 3.13733 69.7635 2.73055C69.7635 2.67244 69.7919 2.61433 69.8486 2.4981ZM50.8764 27.0502C50.8764 26.8177 50.8764 26.6434 50.8764 26.469C50.8764 25.9751 50.6496 25.8008 50.1674 25.8589C50.054 25.8589 49.9689 25.8589 49.8555 25.8589C49.6853 25.8589 49.5152 25.8589 49.345 25.8589C49.1182 25.8589 48.9197 26.0332 48.8913 26.2076C48.8913 26.4691 48.8913 26.7306 48.8913 26.963C48.8913 27.0792 48.8913 27.1954 48.8913 27.3407C48.8913 27.3988 48.8913 27.486 48.8913 27.5441C48.948 27.9218 48.9764 28.2996 49.0331 28.6773C49.1182 29.2003 49.3167 29.6942 49.6853 30.101C49.8839 30.3044 50.1107 30.5078 50.3092 30.7112C50.5078 30.9146 50.763 31.0308 51.0749 31.0889C51.3869 31.147 51.6705 31.2342 52.0108 31.2051C52.2944 31.1761 52.578 31.118 52.8616 31.0889C53.1735 31.0599 53.4287 30.9146 53.6556 30.7112C53.8541 30.5368 54.0526 30.3335 54.2228 30.1301C54.5064 29.8105 54.7332 29.4327 54.8183 28.9969C54.9034 28.6482 54.9601 28.2996 54.9885 27.9509C55.0168 27.4279 55.1019 26.9049 54.9885 26.3528C54.9034 25.8879 54.8183 25.423 54.5631 25.0453C54.3646 24.7257 54.1377 24.4352 53.9108 24.1155C53.7974 23.9703 53.6556 23.825 53.4855 23.7088C52.8332 23.2148 52.2377 22.6628 51.7556 22.0235C51.3302 21.4715 50.9899 20.8613 51.0466 20.1059C51.0466 20.1059 51.0466 20.0477 51.0466 20.0187C51.0466 19.7281 51.0466 19.4666 51.1033 19.1761C51.1884 18.7983 51.3302 18.4497 51.557 18.1301C51.7272 17.8976 51.8973 17.8976 52.0675 18.1301C52.1809 18.2753 52.266 18.4206 52.3227 18.595C52.4929 19.0017 52.6063 19.4376 52.663 19.9025C52.6914 20.1059 52.7198 20.3092 52.7481 20.5126C52.8048 20.7741 52.8899 20.8613 53.1451 20.8613C53.4287 20.8613 53.7123 20.8613 53.9959 20.8613C54.2512 20.8613 54.4213 20.687 54.3929 20.4255C54.3646 20.0187 54.3079 19.6119 54.2228 19.2051C54.081 18.4787 53.7407 17.8686 53.2586 17.3165C53.0034 17.055 52.7198 16.8807 52.3794 16.8226C51.8973 16.7354 51.4152 16.7354 50.9615 16.9097C50.366 17.1422 49.9689 17.6361 49.6853 18.2172C49.4868 18.595 49.4301 19.0308 49.3734 19.4376C49.345 19.67 49.2883 19.9025 49.26 20.1059C49.2032 20.716 49.3167 21.3262 49.4868 21.9364C49.7421 22.779 50.2525 23.5054 50.7913 24.1737C51.1317 24.6385 51.5854 24.9872 51.9824 25.394C52.3795 25.7717 52.7198 26.2076 52.8332 26.7887C52.9183 27.2536 52.9466 27.6894 52.7765 28.1543C52.6914 28.3867 52.6063 28.5901 52.4929 28.8226C52.4078 28.9678 52.3227 29.1131 52.2093 29.2293C52.0675 29.4037 51.869 29.4037 51.6988 29.2293C51.6138 29.1422 51.5287 29.055 51.472 28.9388C51.1317 28.2996 50.7913 27.6894 50.9048 26.9921L50.8764 27.0502ZM57.796 26.0042C58.1363 26.0042 58.4199 26.0042 58.7319 26.0042C58.9871 26.0042 59.214 25.9461 59.4408 25.8298C59.7244 25.6555 60.008 25.4812 60.2349 25.2197C60.4618 25.0163 60.6036 24.7548 60.6603 24.4352C60.717 24.0865 60.8021 23.7378 60.7454 23.3891C60.717 23.1567 60.7454 22.9243 60.717 22.6918C60.6886 22.2269 60.6319 21.733 60.5752 21.2681C60.5185 20.5998 60.4901 19.9315 60.4051 19.2923C60.3767 18.9436 60.32 18.5659 60.1498 18.2463C59.8095 17.5199 59.2991 16.9969 58.4766 16.9678C57.7393 16.9678 57.0303 16.9097 56.293 16.9969C56.1512 16.9969 56.0945 17.055 56.0661 17.2003C56.0661 17.2875 56.0661 17.3456 56.0661 17.4327C56.0661 17.8395 56.0378 18.2463 56.0661 18.6531C56.0661 19.0308 56.0661 19.4376 56.0378 19.8153C56.0094 20.4836 55.981 21.1809 55.9527 21.8492C55.9527 22.5465 55.896 23.2729 55.8676 23.9703C55.8676 24.5514 55.7825 25.1325 55.7825 25.7136C55.7825 26.7596 55.7542 27.8056 55.7258 28.8516C55.7258 29.4618 55.7258 30.072 55.7258 30.6821C55.7258 30.9727 55.8393 31.0599 56.0945 31.0889C56.1512 31.0889 56.2363 31.0889 56.293 31.0889C56.5199 31.0889 56.7467 31.0889 57.002 31.0598C57.1721 31.0598 57.3423 31.0598 57.5124 31.0598C57.7393 31.0598 57.8527 30.9727 57.9095 30.7402C57.9095 30.595 57.9378 30.4497 57.9378 30.3044C57.9378 29.9848 57.9378 29.6361 57.9378 29.3165C57.9378 28.9388 57.9378 28.5611 57.9378 28.1833C57.9378 27.4569 57.8811 26.7596 57.8527 25.9751L57.796 26.0042ZM58.7319 19.7572C58.7319 20.5707 58.7602 21.4134 58.7886 22.2269C58.7886 22.5756 58.7886 22.9243 58.8453 23.2729C58.902 23.7959 58.6752 24.2027 58.4199 24.6095C58.3632 24.6967 58.2781 24.7548 58.2214 24.8129C58.0513 24.9291 57.796 24.8129 57.7677 24.6095C57.7677 24.6095 57.7677 24.5804 57.7677 24.5514C57.7677 24.0574 57.7393 23.5635 57.711 23.0695C57.711 22.3722 57.6542 21.6458 57.6542 20.9485C57.6542 20.1059 57.6259 19.2632 57.6259 18.3916C57.6259 18.2463 57.6259 18.101 57.6826 17.9848C57.6826 17.9267 57.7393 17.8395 57.796 17.8105C57.9945 17.6652 58.3349 17.7233 58.4483 17.9557C58.5617 18.1882 58.6468 18.4206 58.7319 18.6531C58.7886 18.8274 58.7886 19.0308 58.7886 19.2342C58.7886 19.4085 58.7886 19.6119 58.7886 19.7862L58.7319 19.7572ZM61.3693 29.055C61.3693 29.6071 61.3693 30.1301 61.3693 30.6821C61.3693 30.9727 61.5111 31.118 61.7947 31.0889C62.2484 31.0308 62.7305 31.0308 63.1842 31.0889C63.326 31.0889 63.4395 31.0599 63.4962 30.9146C63.5245 30.7983 63.5813 30.6531 63.5813 30.5368C63.5813 30.3625 63.5813 30.1882 63.5813 30.0138C63.5813 29.2584 63.5813 28.5029 63.5529 27.7475C63.5529 27.1664 63.5245 26.5853 63.4962 26.0332C63.4962 25.6264 63.4962 25.2487 63.4678 24.8419C63.4678 24.4061 63.4111 23.9703 63.4111 23.5344C63.4111 23.0986 63.3828 22.6337 63.3544 22.1979C63.3544 21.6168 63.326 21.0356 63.2977 20.4545C63.2977 20.1059 63.2977 19.7862 63.2977 19.4376C63.2977 19.0308 63.2977 18.624 63.2693 18.2172C63.2693 18.101 63.2126 17.9557 63.241 17.8686C63.2977 17.6361 63.241 17.4327 63.241 17.2293C63.241 17.0841 63.1559 16.9969 63.0141 16.9969C62.7021 16.9969 62.3618 16.9969 62.0499 16.9969C61.9364 16.9969 61.8514 17.055 61.8514 17.2003C61.8514 17.3456 61.823 17.5199 61.823 17.6652C61.823 18.101 61.823 18.5078 61.823 18.9436C61.823 19.3795 61.7663 19.8444 61.7379 20.2802C61.7096 21.1519 61.7096 22.0526 61.6529 22.9243C61.6529 23.4763 61.5961 24.0284 61.5678 24.5804C61.5678 24.9 61.5678 25.1906 61.5678 25.5102C61.5678 26.1494 61.4827 26.8177 61.4827 27.4569C61.4827 28.009 61.4827 28.532 61.4827 29.0841L61.3693 29.055ZM69.168 25.3068C69.5934 24.9291 69.7352 24.4352 69.7352 23.9121C69.7352 23.4182 69.7352 22.9243 69.6785 22.4303C69.6501 21.9364 69.5934 21.4424 69.5367 20.9485C69.4799 20.2511 69.4516 19.5538 69.3098 18.8565C69.2247 18.3916 69.0546 17.9557 68.7142 17.578C68.3739 17.2293 68.0053 16.9678 67.5232 16.9678C66.8142 16.9678 66.1336 16.9678 65.4246 16.9678C65.2544 16.9678 65.1977 17.026 65.141 17.2003C65.141 17.2875 65.1127 17.4037 65.1127 17.5199C65.1127 18.101 65.1127 18.6821 65.0559 19.2632C65.0276 20.193 64.9992 21.1228 64.9425 22.0526C64.9425 22.779 64.8858 23.5054 64.8574 24.2027C64.8574 24.7257 64.7723 25.2778 64.7723 25.8008C64.7723 26.9921 64.744 28.1833 64.7156 29.3746C64.7156 29.8105 64.7156 30.2463 64.7156 30.6821C64.7156 30.9146 64.8291 31.0308 65.0559 31.0598C65.141 31.0598 65.2261 31.0598 65.3112 31.0598C65.5664 31.0598 65.8216 31.0598 66.0485 31.0598C66.2187 31.0598 66.3888 31.0598 66.5306 31.0598C66.7008 31.0598 66.8142 31.0017 66.8426 30.8274C66.8709 30.7112 66.8993 30.5659 66.8993 30.4497C66.8993 29.4908 66.9276 28.5611 66.8709 27.6022C66.8426 27.0792 66.8709 26.5272 66.8709 26.0042C67.0127 26.0042 67.1545 26.0042 67.2679 26.0042C67.4381 26.0042 67.5515 26.0623 67.6083 26.2076C67.8068 26.5562 67.8918 26.9339 67.8918 27.3117C67.8918 27.6603 67.9202 28.009 67.9202 28.3577C67.9202 28.7645 67.9202 29.1712 67.9202 29.6071C67.9202 29.9267 67.9202 30.2463 67.8635 30.5659C67.8635 30.7402 67.8918 30.8855 68.0336 31.0308C68.5441 31.0308 69.0829 31.0308 69.6217 31.0308C69.6785 31.0308 69.7068 31.0017 69.7635 30.9727C69.8486 30.8855 69.9053 30.7984 69.9053 30.6821C69.9053 30.2463 69.9053 29.7814 69.9053 29.3456C69.9053 28.9969 69.8486 28.6192 69.8203 28.2705C69.7635 27.8056 69.7352 27.3407 69.6785 26.8468C69.6785 26.6724 69.6217 26.5272 69.565 26.3528C69.4232 26.0042 69.3098 25.6555 69.0546 25.3068H69.168ZM67.8918 23.0695C67.8918 23.3601 67.8635 23.7378 67.8068 24.1155C67.7784 24.377 67.665 24.6095 67.4665 24.7838C67.2963 24.9291 67.0978 24.9291 66.9276 24.7838C66.8709 24.7257 66.8142 24.6676 66.8142 24.5804C66.8142 24.5804 66.8142 24.5223 66.8142 24.4933C66.8142 23.854 66.7575 23.1858 66.7575 22.5465C66.7575 21.9364 66.7291 21.3552 66.7008 20.7451C66.7008 20.0187 66.6724 19.2923 66.644 18.5659C66.644 18.5078 66.644 18.4206 66.644 18.3625C66.644 18.2172 66.7291 18.1591 66.8709 18.1591C67.1545 18.1301 67.2679 18.1882 67.3814 18.4497C67.5799 18.8274 67.6366 19.2342 67.6933 19.67C67.7784 20.3964 67.7784 21.0937 67.8068 21.8201C67.8068 22.1979 67.8351 22.6046 67.8635 23.0986L67.8918 23.0695ZM70.8128 29.055C70.8128 29.6071 70.8128 30.1301 70.8128 30.6821C70.8128 30.9727 70.9546 31.118 71.2382 31.0889C71.6919 31.0308 72.1741 31.0308 72.6278 31.0889C72.7696 31.0889 72.883 31.0599 72.9397 30.9146C72.9681 30.7983 73.0248 30.6531 73.0248 30.5368C73.0248 30.3625 73.0248 30.1882 73.0248 30.0138C73.0248 29.2584 73.0248 28.5029 72.9965 27.7475C72.9965 27.1664 72.9681 26.5853 72.9397 26.0332C72.9397 25.6264 72.9397 25.2487 72.9114 24.8419C72.9114 24.4061 72.8547 23.9703 72.8547 23.5344C72.8547 23.0986 72.8263 22.6337 72.798 22.1979C72.798 21.6168 72.7696 21.0356 72.7412 20.4545C72.7412 20.1059 72.7412 19.7862 72.7412 19.4376C72.7412 19.0308 72.7412 18.624 72.7129 18.2172C72.7129 18.101 72.6562 17.9557 72.6845 17.8686C72.7412 17.6361 72.6845 17.4327 72.6845 17.2293C72.6845 17.0841 72.5994 16.9969 72.4576 16.9969C72.1457 16.9969 71.8054 16.9969 71.4934 16.9969C71.38 16.9969 71.2949 17.055 71.2949 17.2003C71.2949 17.3456 71.2666 17.5199 71.2666 17.6652C71.2666 18.101 71.2666 18.5078 71.2666 18.9436C71.2666 19.3795 71.2098 19.8444 71.1815 20.2802C71.1531 21.1519 71.1531 22.0526 71.0964 22.9243C71.0964 23.4763 71.0397 24.0284 71.0113 24.5804C71.0113 24.9 71.0113 25.1906 71.0113 25.5102C71.0113 26.1494 70.9263 26.8177 70.9263 27.4569C70.9263 28.009 70.9263 28.532 70.9263 29.0841L70.8128 29.055ZM78.9802 19.1761C78.9802 18.624 78.9802 18.0429 79.0086 17.4618C79.0086 17.4037 79.0086 17.3456 79.0086 17.3165C78.9519 17.026 78.8951 16.9678 78.5832 16.9678C77.4488 16.9678 76.2861 16.9678 75.1517 16.9678C74.6696 16.9678 74.1875 16.9678 73.7054 16.9678C73.4786 16.9678 73.3935 17.055 73.3651 17.2875C73.3651 17.3456 73.3651 17.4037 73.3651 17.4327C73.3651 17.8395 73.3651 18.2463 73.3651 18.6531C73.3651 18.8274 73.3935 19.0308 73.4786 19.2051C73.5636 19.4666 73.7905 19.5247 74.0174 19.3795C74.1308 19.2923 74.2159 19.2051 74.301 19.0889C74.5279 18.8274 74.7831 18.595 75.0667 18.4206C75.2368 18.3044 75.3503 18.3625 75.4353 18.5659C75.4353 18.6531 75.4637 18.7402 75.4637 18.8274C75.4637 19.2923 75.4353 19.7281 75.4353 20.193C75.4353 20.4545 75.4353 20.716 75.4353 20.9775C75.4353 21.5005 75.3786 21.9945 75.3503 22.5175C75.3503 22.8952 75.3219 23.302 75.2935 23.6797C75.2652 24.5804 75.2368 25.4521 75.1801 26.3528C75.1801 26.8177 75.1234 27.2536 75.1234 27.7184C75.1234 28.7063 75.1234 29.7233 75.1234 30.7112C75.1234 31.0308 75.2085 31.118 75.5204 31.147C75.5488 31.147 75.5771 31.147 75.6339 31.147C76.0592 31.147 76.513 31.147 76.9384 31.147C77.1936 31.147 77.3354 30.9727 77.3638 30.7402C77.3638 30.624 77.3638 30.5078 77.3638 30.3916C77.3638 29.3746 77.3638 28.3867 77.3354 27.3698C77.3354 26.7887 77.307 26.1785 77.2787 25.5974C77.2787 24.9582 77.2503 24.3189 77.222 23.6797C77.222 23.2439 77.1936 22.808 77.1652 22.3722C77.1369 21.5005 77.0802 20.6289 77.0518 19.7862C77.0518 19.5829 77.0518 19.3795 77.0234 19.1761C77.0234 19.0308 77.0234 18.8855 77.0234 18.7402C77.0234 18.6531 77.0234 18.5659 77.0802 18.4787C77.1652 18.3335 77.307 18.3335 77.4772 18.4787C77.7041 18.6531 77.9026 18.8565 78.0727 19.0598C78.1294 19.118 78.1862 19.2051 78.2429 19.2923C78.4698 19.5247 78.6966 19.5829 78.9235 19.3214C78.9235 19.3214 78.9519 19.2923 79.0369 19.2342L78.9802 19.1761ZM51.0466 38.6143C51.0466 37.8589 51.0466 37.1325 51.16 36.377C51.2167 36.0284 51.3018 35.6797 51.472 35.331C51.557 35.1567 51.6705 35.0114 51.7839 34.8661C51.8974 34.7209 52.0391 34.7209 52.1526 34.8661C52.2377 34.9533 52.2944 35.0695 52.3511 35.1567C52.578 35.5635 52.663 36.0284 52.7198 36.4933C52.7481 36.7838 52.7765 37.1034 52.8332 37.394C52.8332 37.5974 52.9466 37.6555 53.1168 37.6555C53.5138 37.6555 53.9108 37.6555 54.3079 37.6555C54.4213 37.6555 54.478 37.5974 54.5064 37.4812C54.5064 37.2778 54.5064 37.0744 54.5064 36.871C54.5064 36.6676 54.4497 36.4642 54.4213 36.2608C54.3079 35.2729 53.8541 34.4594 53.1168 33.7911C53.0884 33.762 53.0317 33.733 52.975 33.7039C52.4362 33.5005 51.869 33.4134 51.3302 33.5877C50.4227 33.8492 49.8839 34.5465 49.657 35.4473C49.4585 36.2318 49.4018 37.0453 49.3734 37.8298C49.3734 37.917 49.3734 38.0332 49.3734 38.1204C49.3167 38.5853 49.2883 39.0792 49.2316 39.5441C49.2316 39.8347 49.1749 40.1543 49.1749 40.4448C49.1182 40.9969 49.0614 41.549 49.0331 42.101C49.0047 42.5078 49.0047 42.8855 48.9764 43.2923C48.9197 43.9606 48.9197 44.6289 49.0331 45.2681C49.1182 45.762 49.26 46.2269 49.5719 46.6337C49.8555 47.0114 50.1674 47.302 50.5361 47.5925C50.5928 47.6506 50.7063 47.6797 50.7913 47.7088C51.3869 47.9122 51.9824 47.9121 52.6063 47.854C53.0601 47.7959 53.4571 47.6216 53.7974 47.302C53.9108 47.1858 54.0243 47.0695 54.1377 46.9533C54.478 46.5756 54.7333 46.1688 54.8467 45.6749C54.9601 45.1519 55.0452 44.6289 55.0168 44.0768C55.0168 43.641 54.9885 43.1761 54.9885 42.7112C54.9885 42.4497 54.875 42.2463 54.5347 42.3044C54.3646 42.3044 54.1944 42.3335 54.0243 42.3335C53.7974 42.3335 53.5705 42.3044 53.3437 42.2753C53.1168 42.2753 53.0601 42.3044 53.0034 42.5368C53.0034 42.595 53.0034 42.6821 53.0034 42.7402C53.0034 43.2342 53.0034 43.7281 53.0317 44.2221C53.0317 44.2802 53.0317 44.3383 53.0317 44.3674C52.9466 44.8032 52.7481 45.1809 52.578 45.5586C52.5212 45.7039 52.4078 45.8201 52.2944 45.9364C52.1526 46.0816 51.9541 46.0816 51.8123 45.9364C51.6988 45.7911 51.5854 45.6458 51.5003 45.5005C51.3869 45.2681 51.2734 45.0066 51.1884 44.7741C51.1033 44.5707 51.0466 44.3674 51.0466 44.1349C51.0466 43.3504 51.0749 42.5659 51.1033 41.7814C51.1033 41.0841 51.1317 40.3867 51.16 39.6894C51.16 39.2826 51.16 38.9049 51.16 38.4981L51.0466 38.6143ZM56.1228 45.8492C56.1228 46.4013 56.1228 46.9243 56.1228 47.4763C56.1228 47.7669 56.2646 47.9122 56.5482 47.8831C57.002 47.825 57.4841 47.825 57.9378 47.8831C58.0796 47.8831 58.1931 47.854 58.2498 47.7088C58.2781 47.5925 58.3349 47.4473 58.3349 47.331C58.3349 47.1567 58.3349 46.9824 58.3349 46.808C58.3349 46.0526 58.3348 45.2971 58.3065 44.5417C58.3065 43.9606 58.2781 43.3795 58.2498 42.8274C58.2498 42.4206 58.2498 42.0429 58.2214 41.6361C58.2214 41.2003 58.1647 40.7645 58.1647 40.3286C58.1647 39.8928 58.1363 39.4279 58.108 38.9921C58.108 38.4109 58.0796 37.8298 58.0513 37.2487C58.0513 36.9 58.0513 36.5804 58.0513 36.2318C58.0513 35.825 58.0513 35.4182 58.0229 35.0114C58.0229 34.8952 57.9662 34.7499 57.9945 34.6628C58.0513 34.4303 57.9945 34.2269 57.9945 34.0235C57.9945 33.8783 57.9095 33.7911 57.7677 33.7911C57.4557 33.7911 57.1154 33.7911 56.8035 33.7911C56.69 33.7911 56.6049 33.8492 56.6049 33.9945C56.6049 34.1398 56.5766 34.3141 56.5766 34.4594C56.5766 34.8952 56.5766 35.302 56.5766 35.7378C56.5766 36.1737 56.5199 36.6385 56.4915 37.0744C56.4632 37.946 56.4632 38.8468 56.4064 39.7184C56.4064 40.2705 56.3497 40.8226 56.3214 41.3746C56.3214 41.6942 56.3214 41.9848 56.3214 42.3044C56.3214 42.9436 56.2363 43.6119 56.2363 44.2511C56.2363 44.8032 56.2363 45.3262 56.2363 45.8783L56.1228 45.8492ZM63.5245 42.101C63.9499 41.7233 64.0917 41.2293 64.0917 40.7063C64.0917 40.2124 64.0917 39.7184 64.035 39.2245C64.0067 38.7306 63.9499 38.2366 63.8932 37.7427C63.8365 37.0453 63.8081 36.348 63.6663 35.6507C63.5813 35.1858 63.4111 34.7499 63.0708 34.3722C62.7305 34.0235 62.3618 33.762 61.8797 33.762C61.1707 33.762 60.4901 33.762 59.7812 33.762C59.611 33.762 59.5543 33.8201 59.4976 33.9945C59.4976 34.0816 59.4692 34.1979 59.4692 34.3141C59.4692 34.8952 59.4692 35.4763 59.4125 36.0574C59.3841 36.9872 59.3558 37.917 59.2991 38.8468C59.2991 39.5732 59.2423 40.2996 59.214 40.9969C59.214 41.5199 59.1289 42.072 59.1289 42.595C59.1289 43.7862 59.1005 44.9775 59.0722 46.1688C59.0722 46.6046 59.0722 47.0405 59.0722 47.4763C59.0722 47.7088 59.1856 47.825 59.4125 47.854C59.4976 47.854 59.5826 47.854 59.6677 47.854C59.923 47.854 60.1782 47.854 60.4051 47.854C60.5752 47.854 60.7454 47.854 60.8872 47.854C61.0573 47.854 61.1707 47.7959 61.1991 47.6216C61.2275 47.5054 61.2558 47.3601 61.2558 47.2439C61.2558 46.285 61.2842 45.3553 61.2275 44.3964C61.1991 43.8734 61.2275 43.3214 61.2275 42.7984C61.3693 42.7984 61.5111 42.7984 61.6245 42.7984C61.7946 42.7984 61.9081 42.8565 61.9648 43.0017C62.1633 43.3504 62.2484 43.7281 62.2484 44.1059C62.2484 44.4545 62.2767 44.8032 62.2767 45.1519C62.2767 45.5586 62.2767 45.9654 62.2767 46.4013C62.2767 46.7209 62.2767 47.0405 62.22 47.3601C62.22 47.5344 62.2484 47.6797 62.3902 47.825C62.9007 47.825 63.4395 47.825 63.9783 47.825C64.035 47.825 64.0634 47.7959 64.1201 47.7669C64.2052 47.6797 64.2619 47.5925 64.2619 47.4763C64.2619 47.0405 64.2619 46.5756 64.2619 46.1398C64.2619 45.7911 64.2052 45.4134 64.1768 45.0647C64.1201 44.5998 64.0917 44.1349 64.035 43.641C64.035 43.4666 63.9783 43.3214 63.9216 43.147C63.7798 42.7984 63.6663 42.4497 63.4111 42.101H63.5245ZM62.2484 39.8637C62.2484 40.1543 62.22 40.532 62.1633 40.9097C62.135 41.1712 62.0215 41.4037 61.823 41.578C61.6529 41.7233 61.4543 41.7233 61.2842 41.578C61.2275 41.5199 61.1707 41.4618 61.1707 41.3746C61.1707 41.3746 61.1707 41.3165 61.1707 41.2875C61.1707 40.6482 61.114 39.9799 61.114 39.3407C61.114 38.7306 61.0857 38.1494 61.0573 37.5393C61.0573 36.8129 61.029 36.0865 61.0006 35.3601C61.0006 35.302 61.0006 35.2148 61.0006 35.1567C61.0006 35.0114 61.0857 34.9533 61.2275 34.9533C61.5111 34.9243 61.6245 34.9824 61.7379 35.2439C61.9364 35.6216 61.9932 36.0284 62.0499 36.4642C62.135 37.1906 62.135 37.8879 62.1633 38.6143C62.1633 38.9921 62.1917 39.3988 62.22 39.8928L62.2484 39.8637ZM67.1261 38.6143C67.1261 37.8589 67.1261 37.1325 67.2396 36.377C67.2963 36.0284 67.3814 35.6797 67.5515 35.331C67.6366 35.1567 67.75 35.0114 67.8635 34.8661C67.9769 34.7209 68.1187 34.7209 68.2321 34.8661C68.3172 34.9533 68.3739 35.0695 68.4307 35.1567C68.6575 35.5635 68.7426 36.0284 68.7993 36.4933C68.8277 36.7838 68.856 37.1034 68.9128 37.394C68.9128 37.5974 69.0262 37.6555 69.1964 37.6555C69.5934 37.6555 69.9904 37.6555 70.3874 37.6555C70.5009 37.6555 70.5576 37.5974 70.5859 37.4812C70.5859 37.2778 70.5859 37.0744 70.5859 36.871C70.5859 36.6676 70.5292 36.4642 70.5009 36.2608C70.3874 35.2729 69.9337 34.4594 69.1964 33.7911C69.168 33.762 69.1113 33.733 69.0546 33.7039C68.5157 33.5005 67.9486 33.4134 67.4097 33.5877C66.5022 33.8492 65.9634 34.5465 65.7365 35.4473C65.538 36.2318 65.4813 37.0453 65.453 37.8298C65.453 37.917 65.453 38.0332 65.453 38.1204C65.3962 38.5853 65.3679 39.0792 65.3112 39.5441C65.3112 39.8347 65.2545 40.1543 65.2545 40.4448C65.1977 40.9969 65.141 41.549 65.1127 42.101C65.0843 42.5078 65.0843 42.8855 65.0559 43.2923C64.9992 43.9606 64.9992 44.6289 65.1127 45.2681C65.1977 45.762 65.3395 46.2269 65.6515 46.6337C65.9351 47.0114 66.247 47.302 66.6157 47.5925C66.6724 47.6506 66.7858 47.6797 66.8709 47.7088C67.4665 47.9122 68.062 47.9121 68.6859 47.854C69.1396 47.7959 69.5367 47.6216 69.877 47.302C69.9904 47.1858 70.1038 47.0695 70.2173 46.9533C70.5576 46.5756 70.8128 46.1688 70.9263 45.6749C71.0397 45.1519 71.1248 44.6289 71.0964 44.0768C71.0964 43.641 71.068 43.1761 71.068 42.7112C71.068 42.4497 70.9546 42.2463 70.6143 42.3044C70.4441 42.3044 70.274 42.3335 70.1038 42.3335C69.877 42.3335 69.6501 42.3044 69.4232 42.2753C69.1964 42.2753 69.1396 42.3044 69.0829 42.5368C69.0829 42.595 69.0829 42.6821 69.0829 42.7402C69.0829 43.2342 69.0829 43.7281 69.1113 44.2221C69.1113 44.2802 69.1113 44.3383 69.1113 44.3674C69.0262 44.8032 68.8277 45.1809 68.6575 45.5586C68.6008 45.7039 68.4874 45.8201 68.3739 45.9364C68.2322 46.0816 68.0336 46.0816 67.8918 45.9364C67.7784 45.7911 67.665 45.6458 67.5799 45.5005C67.4665 45.2681 67.353 45.0066 67.2679 44.7741C67.1829 44.5707 67.1261 44.3674 67.1261 44.1349C67.1261 43.3504 67.1545 42.5659 67.1829 41.7814C67.1829 41.0841 67.2112 40.3867 67.2396 39.6894C67.2396 39.2826 67.2396 38.9049 67.2396 38.4981L67.1261 38.6143ZM73.6487 35.5925C73.6487 35.1858 73.6487 34.7499 73.6487 34.3431C73.6487 34.1979 73.592 34.0526 73.5637 33.9364C73.5353 33.7911 73.4502 33.733 73.3084 33.733C72.9965 33.733 72.7129 33.733 72.4009 33.733C72.2308 33.733 72.174 33.7911 72.1457 33.9654C72.1457 34.3141 72.1173 34.6628 72.089 34.9824C72.089 35.4473 72.089 35.9122 72.0323 36.377C72.0039 37.3068 71.9755 38.2366 71.9188 39.1954C71.9188 39.9218 71.8621 40.6482 71.8337 41.3746C71.8337 41.8105 71.777 42.2753 71.7487 42.7112C71.7487 43.4085 71.6919 44.1349 71.6919 44.8323C71.6919 45.6749 71.6919 46.5175 71.6919 47.3601C71.6919 47.7959 71.8621 47.854 72.1741 47.854C72.6278 47.854 73.0815 47.7669 73.5353 47.854C73.7054 47.8831 73.904 47.854 74.1025 47.854C74.3577 47.854 74.6129 47.854 74.8682 47.854C75.01 47.854 75.1517 47.854 75.2935 47.854C75.5771 47.854 75.8607 47.854 76.1443 47.854C76.3712 47.854 76.5413 47.7088 76.5413 47.4763C76.5413 47.2148 76.5413 46.9533 76.5981 46.7209C76.6548 46.3722 76.5981 46.0235 76.5981 45.7039C76.5981 45.6458 76.5697 45.6168 76.5413 45.5586C76.3428 45.3262 76.116 45.2681 75.8607 45.4715C75.804 45.5296 75.7473 45.5877 75.6906 45.6458C75.4637 45.8783 75.2368 46.1107 74.9532 46.285C74.7264 46.4303 74.5279 46.5756 74.2443 46.5465C73.989 46.5465 73.9323 46.4884 73.9323 46.2269C73.9323 45.5586 73.904 44.8904 73.8756 44.2221C73.8756 43.6119 73.8472 42.9727 73.8189 42.3625C73.7905 41.5199 73.7338 40.6773 73.7054 39.8347C73.6771 38.8468 73.6204 37.8589 73.592 36.871C73.592 36.4642 73.592 36.0284 73.592 35.6216L73.6487 35.5925ZM79.4623 40.3577C79.4623 40.3577 79.4623 40.2705 79.4623 40.2415C79.4623 39.2826 79.434 38.3528 79.434 37.394C79.434 37.2778 79.434 37.1615 79.434 37.0163C79.434 36.5514 79.434 36.0865 79.4056 35.6216C79.4056 35.331 79.5474 35.1858 79.7743 35.0695C79.8877 35.0114 80.0295 35.0114 80.1429 35.0695C80.54 35.331 80.8803 35.5925 81.1922 35.9703C81.2489 36.0284 81.3057 36.0865 81.3624 36.1446C81.4758 36.2608 81.646 36.3189 81.7878 36.2318C81.9296 36.1446 82.0714 36.0284 82.0714 35.825C82.0714 35.7378 82.0714 35.6216 82.0714 35.5344C82.0714 35.3601 82.0714 35.1858 82.0714 35.0114C82.0714 34.8661 82.0714 34.7209 82.0714 34.5756C82.0714 34.4013 82.0714 34.2269 82.0714 34.0526C82.0714 33.8492 82.0146 33.8201 81.8161 33.7911C81.7594 33.7911 81.7027 33.7911 81.646 33.7911C80.8236 33.7911 80.0295 33.7911 79.2071 33.762C78.9235 33.762 78.6683 33.7039 78.3847 33.7039C78.1011 33.7039 77.9309 33.8492 77.9309 34.1398C77.9309 34.4884 77.9309 34.8371 77.9026 35.1858C77.9026 35.3601 77.9026 35.5635 77.9026 35.7378C77.9026 36.2899 77.8742 36.871 77.8459 37.423C77.8459 37.7427 77.8459 38.0332 77.8459 38.3528C77.8459 38.7596 77.7891 39.1664 77.7608 39.6022C77.7608 40.2124 77.7324 40.8516 77.7041 41.4908C77.7041 42.101 77.6473 42.6821 77.619 43.2923C77.619 43.9896 77.5906 44.716 77.5623 45.4134C77.5623 45.9364 77.5339 46.4303 77.5339 46.9533C77.5339 47.1276 77.5339 47.2729 77.5623 47.4473C77.619 47.7378 77.7324 47.854 78.0444 47.825C78.3563 47.825 78.6966 47.7669 79.0086 47.7669C80.0295 47.7669 81.0221 47.7669 82.043 47.7959C82.2699 47.7959 82.44 47.6797 82.44 47.4473C82.44 46.8952 82.5535 46.3431 82.4967 45.762C82.44 45.3843 82.1281 45.1809 81.8161 45.3553C81.731 45.4134 81.646 45.4715 81.5892 45.5296C81.3907 45.733 81.1922 45.9364 80.937 46.1107C80.6818 46.285 80.4265 46.4594 80.0862 46.4303C79.831 46.4303 79.7459 46.3431 79.7176 46.0816C79.6892 45.4715 79.6325 44.8613 79.6325 44.2511C79.6325 43.8734 79.6325 43.4666 79.6325 43.0889C79.6325 42.6821 79.5474 42.2463 79.6325 41.8395C79.6608 41.6652 79.7176 41.578 79.9161 41.549C80.1146 41.549 80.2847 41.6071 80.4265 41.7233C80.4833 41.7814 80.5683 41.8686 80.625 41.9267C80.7952 42.072 80.9653 42.2172 81.2489 42.101C81.2489 41.9557 81.3057 41.7814 81.3057 41.6071C81.3057 41.055 81.3057 40.532 81.3057 40.009C81.3057 39.8347 81.3057 39.6603 81.2206 39.486C81.1355 39.3407 81.0504 39.3117 80.9086 39.3698C80.7668 39.4279 80.7101 39.5441 80.625 39.6894C80.3982 40.0962 80.0579 40.3286 79.5474 40.2996L79.4623 40.3577Z" fill="#FFFAEF"/>
</g>
<defs>
<clipPath id="clip0_908_2612">
<rect width="82.4397" height="48" fill="white"/>
</clipPath>
</defs>
</svg>
