<svg width="666" height="744" viewBox="0 0 666 744" fill="none" xmlns="http://www.w3.org/2000/svg">
<path d="M37.2336 149.361C29.6546 137.375 29.1259 123.804 39.5249 110.937C58.0316 88.0239 79.5347 69.5172 108.617 62.1145C134.35 55.5931 159.907 48.5429 185.816 42.5502C199.035 39.5539 212.254 36.9101 225.65 34.795C236.225 33.0325 246.624 29.8599 257.199 29.8599C262.487 29.8599 267.775 29.8599 272.886 29.8599C321.708 29.3311 370.531 27.5686 419.177 31.4462C438.037 33.0325 456.72 35.3238 475.05 39.2014C486.33 41.4927 497.434 44.3128 508.891 45.3703C520.171 46.4278 531.804 45.7228 542.555 49.4242C557.008 54.3593 571.109 63.7008 585.033 70.0459C599.486 76.5674 613.234 83.6175 619.579 99.128C625.043 112.523 627.863 129.62 624.866 147.422C619.226 180.734 595.432 186.198 570.404 195.715C533.038 209.64 494.79 209.992 456.014 211.402C419.53 212.636 383.398 219.862 346.737 221.977C329.992 222.859 313.953 220.215 297.738 219.334C265.836 217.571 233.934 218.452 202.032 215.632C165.899 212.636 129.062 213.165 94.1638 200.122C68.4306 190.428 50.6289 172.097 36.5286 149.889L37.2336 149.361ZM639.672 448.993C640.906 439.476 638.791 429.958 636.323 420.793C635.089 416.034 633.503 411.099 630.683 407.221C623.456 397.527 613.057 398.761 602.482 399.995C593.846 401.052 585.209 401.052 576.573 400.7C563.001 400.171 549.253 398.056 535.682 397.351C516.646 396.293 498.668 400.876 481.043 406.868C474.697 408.983 468 409.865 462.007 412.685C450.198 418.325 438.037 422.555 427.109 430.31C419.706 435.422 411.598 439.652 404.196 444.939C395.383 451.285 387.628 458.335 378.11 463.622C369.826 468.205 362.423 474.374 355.373 480.895C352.024 484.068 349.733 488.298 344.798 489.356C342.33 480.895 349.733 474.903 349.909 467.324C350.262 458.511 354.316 450.58 357.664 442.824C365.067 426.433 372.822 410.394 382.516 395.059C389.038 384.837 393.444 373.028 402.081 364.215C412.832 353.463 424.289 344.651 441.033 346.061C452.842 347.118 464.122 349.938 475.755 351.877C496.024 355.226 516.822 357.341 536.387 364.215C557.185 371.441 578.864 376.2 600.72 378.668C609.885 379.725 620.812 379.373 626.1 371.794C628.215 368.621 628.92 364.744 629.625 361.042C635.97 324.029 638.086 286.134 633.679 248.944C633.15 244.009 632.269 238.722 628.744 235.373C626.629 233.258 623.633 232.024 620.636 230.966C614.291 228.851 607.946 227.441 601.425 226.384C583.975 223.74 566.174 224.445 548.548 226.384C540.617 227.265 531.98 227.794 524.225 230.966C522.991 231.495 521.405 231.495 519.995 231.319C512.24 230.085 504.484 229.204 496.906 231.319C487.388 234.139 477.341 236.43 467.471 236.783C459.363 237.135 454.252 238.193 448.436 245.772C432.396 266.922 414.066 286.663 401.023 310.105C395.912 319.27 389.919 327.906 384.279 336.719C372.999 353.992 360.837 370.913 350.085 388.714C339.863 405.458 333.518 424.318 326.996 442.824C322.414 456.043 316.245 469.086 314.482 483.363C314.306 484.949 313.601 487.241 310.781 487.417C307.079 477.018 306.727 465.914 305.493 454.986C304.083 442.824 310.957 430.487 305.141 418.325C304.788 417.62 305.141 416.21 305.493 415.505C312.014 404.225 313.248 391.006 321.532 380.078C331.226 367.387 334.046 350.82 340.391 336.014C352.377 307.99 364.01 280.141 381.811 255.113C384.103 251.764 387.451 248.592 384.808 244.009C381.988 239.25 377.405 241.718 373.704 241.894C367.358 242.247 361.189 245.596 354.844 244.538C343.388 242.775 331.931 245.243 320.651 244.009C317.831 243.657 314.13 242.952 312.191 244.362C305.493 249.121 297.738 250.883 290.159 253.351C287.691 254.232 285.576 255.29 286.81 259.167C287.868 262.163 287.691 266.041 286.281 269.037C281.699 278.026 282.404 288.073 279.584 297.414C277.645 303.583 279.936 309.576 279.055 315.921C276.764 328.964 277.997 342.359 275.177 355.578C273.591 362.981 274.825 371.089 272.71 378.315C269.361 390.124 268.303 402.286 267.598 414.271C266.365 435.598 267.246 456.925 269.89 480.014C265.66 472.083 261.782 466.09 258.962 459.569C246.624 431.192 233.229 402.991 223.182 373.733C207.319 328.083 182.291 288.778 148.274 254.585C146.159 252.469 144.044 250.354 141.576 248.768C138.756 246.829 135.407 245.772 132.059 244.714C115.843 239.955 98.5702 239.603 81.6497 239.427C75.3046 239.427 68.7831 239.25 62.438 239.074C60.1467 239.074 57.6791 239.074 55.564 239.603C53.8015 240.132 52.2152 241.013 50.4527 241.718C44.46 244.891 38.2911 248.239 35.1185 254.056C29.4784 264.279 35.471 276.616 37.2336 288.073C38.1148 294.242 37.7623 300.411 37.5861 306.58C36.8811 318.565 36.3523 330.55 35.6473 342.536C35.1185 351.701 35.1185 362.1 41.8162 368.269C49.5714 375.495 59.6179 372.323 68.7831 372.146C81.4735 372.146 93.9875 370.208 106.325 367.564C109.498 366.859 113.023 365.801 116.196 366.506C134.879 370.031 152.504 376.376 166.781 389.772C173.655 396.293 180.881 402.462 188.108 408.807C190.751 420.264 198.859 428.9 205.028 438.242C211.373 448.112 217.19 458.159 221.42 469.615C216.484 467.324 212.078 465.561 207.672 463.446C197.802 458.335 188.108 452.695 179.119 445.821C166.604 436.127 151.094 431.368 137.346 423.789C130.296 419.911 123.07 415.329 115.491 413.214C93.8113 407.045 71.427 410.041 49.3951 409.689C45.5175 409.689 40.4062 410.746 40.0536 415.857C39.5249 425.728 36.176 434.893 33.7085 444.234C29.4784 459.745 29.8309 476.313 26.6583 491.999C24.7195 502.046 24.1907 512.974 26.6583 522.491C30.8884 539.764 32.2984 556.685 26.6583 573.253C22.7807 584.357 31.4172 588.587 36.7048 594.227C40.5824 598.281 47.1038 596.342 52.039 593.346C69.3119 583.123 86.5849 572.9 103.505 562.325C123.598 549.811 141.224 533.772 161.141 520.905C172.597 513.503 184.406 507.51 196.391 501.517C197.802 500.812 199.74 500.636 201.327 500.812C213.488 503.28 225.65 505.924 236.578 512.092C240.631 514.384 244.861 516.146 249.268 517.909C251.383 518.614 253.322 519.319 255.437 519.848C256.847 520.2 259.138 523.02 260.372 523.02C255.613 523.197 250.678 523.549 245.919 522.315C236.93 519.848 228.294 516.499 218.952 515.794C209.611 515.089 200.269 516.675 191.985 521.258C187.579 523.725 183.525 526.545 179.119 529.013C165.547 536.592 152.504 544.7 140.343 554.394C125.537 566.203 111.084 578.54 95.9263 589.644C80.4159 600.925 64.3768 611.324 51.1577 625.424C46.7513 630.183 46.0463 635.647 45.87 641.111C45.87 657.679 47.2801 674.07 50.6289 690.286C52.3915 699.275 55.0353 704.386 61.5567 705.091C74.4233 706.854 87.6424 707.559 100.509 709.498C119.016 712.318 137.522 708.44 155.853 709.321C167.133 709.85 178.59 707.559 190.046 705.973C193.043 705.62 197.273 705.268 197.802 700.861C199.035 690.638 204.147 682.531 210.139 674.423C217.19 664.905 220.538 653.449 224.063 642.345C228.47 629.125 236.754 617.669 240.103 604.097C241.865 596.871 246.095 592.465 252.088 588.939C267.951 579.069 286.458 577.483 303.731 572.019C304.436 576.249 301.792 578.012 300.558 580.479C297.914 585.767 295.094 591.055 292.979 596.518C287.515 610.09 289.806 624.543 287.691 638.643C284.342 659.794 290.335 680.592 291.745 701.742C292.274 708.793 299.148 714.609 306.022 714.433C315.54 714.433 324.881 714.08 334.399 714.08C339.863 714.08 341.801 711.789 339.686 706.854C337.395 701.566 337.219 695.926 337.571 690.815C338.629 668.078 342.154 645.517 340.391 622.604C339.686 612.029 343.035 602.159 344.798 591.936C345.679 587.353 343.917 579.951 348.147 578.893C353.258 577.659 358.722 582.242 362.952 586.119C363.657 586.824 364.362 587.529 364.891 588.234C378.815 602.864 386.923 621.194 397.85 637.762C411.775 658.913 426.932 678.301 450.374 689.405C467.647 697.689 484.92 706.149 504.308 707.383C540.969 709.674 576.925 710.379 613.41 710.379C615.877 710.379 618.521 710.379 620.636 709.321C622.928 708.44 624.69 706.501 626.1 704.562C633.855 693.987 632.798 679.711 634.208 666.668C635.265 656.621 637.909 646.751 638.967 636.881C640.377 624.014 638.967 611.148 639.496 598.281C639.848 590.526 640.729 582.594 639.143 574.839C634.913 555.275 614.291 554.922 597.899 557.742C587.677 559.329 577.454 556.509 567.231 557.037C554.012 557.742 540.793 556.156 527.574 556.509C518.585 556.685 509.42 555.98 500.254 555.98C493.38 555.98 486.33 556.685 479.633 555.451C471.701 553.865 463.946 555.451 456.014 554.746C444.734 553.689 433.278 553.512 421.821 552.102C405.077 549.811 389.038 544.347 372.294 542.232C364.362 541.174 356.254 539.236 348.675 535.182C359.779 524.254 366.301 524.783 382.34 524.959C407.368 525.312 431.868 530.423 456.896 532.009C475.05 533.243 493.204 535.358 511.182 538.178C521.581 539.764 532.156 538.883 542.732 539.941C552.602 540.998 562.296 543.466 572.166 544.7C581.86 545.933 592.083 545.581 600.72 541.174C608.298 537.297 613.939 530.599 618.874 523.725C620.989 520.729 622.928 517.733 623.985 514.384C625.571 508.744 624.514 502.575 624.69 496.758C625.395 479.838 637.909 465.561 640.201 448.817L639.672 448.993Z" fill="#884D28"/>
</svg>
